<?xml version="1.0" standalone="no"?>
<!DOCTYPE svg PUBLIC "-//W3C//DTD SVG 20010904//EN"
 "http://www.w3.org/TR/2001/REC-SVG-20010904/DTD/svg10.dtd">
<svg version="1.0" xmlns="http://www.w3.org/2000/svg"
 width="200.000000pt" height="200.000000pt" viewBox="0 0 200.000000 200.000000"
 preserveAspectRatio="xMidYMid meet">

<g transform="translate(0.000000,200.000000) scale(0.100000,-0.100000)"
fill="#000000" stroke="none">
<path d="M1361 1974 c-41 -34 -44 -92 -6 -129 23 -24 29 -25 165 -25 77 0 140
-3 140 -8 0 -4 -130 -138 -290 -297 -278 -278 -290 -291 -290 -328 0 -52 35
-87 87 -87 36 0 50 13 328 290 160 160 294 290 298 290 4 0 7 -63 7 -140 0
-136 1 -142 25 -165 37 -38 95 -35 129 6 l26 31 0 253 c0 176 -4 262 -12 280
-23 51 -45 55 -322 55 l-254 0 -31 -26z"/>
<path d="M473 618 l-293 -293 0 143 0 144 -29 29 c-40 39 -82 39 -122 0 l-29
-29 0 -267 0 -267 29 -29 29 -29 267 0 267 0 29 29 c39 40 39 82 0 122 l-29
29 -144 0 -143 0 293 293 c280 280 292 294 292 330 0 52 -35 87 -87 87 -36 0
-50 -13 -330 -292z"/>
</g>
</svg>
